<svg id="writer" enable-background="new 0 0 300 300" height="512" viewBox="0 0 300 300" width="512" xmlns="http://www.w3.org/2000/svg"><circle cx="136" cy="127.265" fill="#e5efef" r="92"/><path d="m166 151.265h102v68h-102z" fill="#fff" transform="matrix(-1 0 0 -1 434 370.529)"/><path d="m268 223.265h-102c-2.211 0-4-1.791-4-4v-68c0-2.209 1.789-4 4-4h102c2.211 0 4 1.791 4 4v68c0 2.209-1.789 4-4 4zm-98-8h94v-60h-94z" fill="#4c241d"/><path d="m168 203.265h100v16h-100z" fill="#6b4f5b"/><path d="m268 223.265h-100c-2.211 0-4-1.791-4-4v-16c0-2.209 1.789-4 4-4h100c2.211 0 4 1.791 4 4v16c0 2.209-1.789 4-4 4zm-96-8h92v-8h-92z" fill="#4c241d"/><path d="m244 171.265h-16c-2.211 0-4-1.791-4-4s1.789-4 4-4h16c2.211 0 4 1.791 4 4s-1.789 4-4 4z" fill="#4c241d"/><path d="m252 183.265h-24c-2.211 0-4-1.791-4-4s1.789-4 4-4h24c2.211 0 4 1.791 4 4s-1.789 4-4 4z" fill="#4c241d"/><path d="m252 195.265h-24c-2.211 0-4-1.791-4-4s1.789-4 4-4h24c2.211 0 4 1.791 4 4s-1.789 4-4 4z" fill="#4c241d"/><path d="m160.641 47.323c-19.786-.878-37.504 8.162-48.605 22.567-4.726 6.132-7.821 13.36-9.659 20.88-1.169 4.787-2.377 10.659-2.377 14.494v150h116v-148.462c0-31.274-24.115-58.092-55.359-59.479z" fill="#e66353"/><path d="m216 259.265h-116c-2.211 0-4-1.791-4-4v-150c0-3.49.84-8.686 2.492-15.445 2.113-8.654 5.605-16.182 10.375-22.371 12.332-16 31.863-25.008 51.949-24.121 33.188 1.472 59.184 29.355 59.184 63.476v148.461c0 2.209-1.789 4-4 4zm-112-8h108v-144.461c0-29.83-22.637-54.201-51.535-55.484-17.617-.777-34.52 7.076-45.262 21.012-4.086 5.301-7.094 11.824-8.938 19.389-1.461 5.967-2.266 10.775-2.266 13.545v145.999z" fill="#4c241d"/><path d="m232 267.265h-144v-32.902c0-14.82 8.534-28.25 21.776-34.269l50.224-22.829 50.224 22.829c13.242 6.019 21.776 19.449 21.776 34.269z" fill="#e7d1c4"/><path d="m232 271.265h-144c-2.211 0-4-1.791-4-4v-32.902c0-16.369 9.469-31.25 24.121-37.91l50.223-22.828c1.055-.48 2.258-.48 3.312 0l50.223 22.83c14.652 6.657 24.121 21.538 24.121 37.907v32.902c0 2.21-1.789 4.001-4 4.001zm-140-8h136v-28.902c0-13.24-7.629-25.262-19.434-30.625l-48.566-22.079-48.566 22.076c-11.805 5.366-19.434 17.387-19.434 30.627z" fill="#4c241d"/><path d="m160 199.265c-8.837 0-16-7.163-16-16v-8h32v8c0 8.836-7.163 16-16 16z" fill="#e7d1c4"/><path d="m160 203.265c-11.027 0-20-8.973-20-20v-8c0-2.209 1.789-4 4-4h32c2.211 0 4 1.791 4 4v8c0 11.027-8.973 20-20 20zm-12-24v4c0 6.617 5.383 12 12 12s12-5.383 12-12v-4z" fill="#4c241d"/><path d="m116 271.265c-2.211 0-4-1.791-4-4v-28c0-2.209 1.789-4 4-4s4 1.791 4 4v28c0 2.209-1.789 4-4 4z" fill="#4c241d"/><path d="m208 271.265c-2.211 0-4-1.791-4-4v-28c0-2.209 1.789-4 4-4s4 1.791 4 4v28c0 2.209-1.789 4-4 4z" fill="#4c241d"/><path d="m212.123 118.156c-24.123 13.109-83.904-12.188-86.094-32.111l-.383.033c1.404 29.27-21.646 32.022-21.646 32.022-3.635 1.589-6.145 5.274-5.993 9.53.114 3.199 2.081 6.09 4.734 7.88 3.217 2.171 5.98 2.017 8.431 1.192 3.969 19.359 18.022 35.548 37.427 41.794 5.563 1.791 11.581 1.62 17.141-.182l1.775-.575c19.093-6.188 33.023-22.039 37.173-41.079 2.441.861 5.222 1.011 8.371-.95 2.549-1.588 4.495-4.194 4.862-7.175.565-4.583-1.976-8.646-5.798-10.379z" fill="#e7d1c4"/><g fill="#4c241d"><path d="m156.75 183.767c-3.195 0-6.348-.486-9.375-1.463-19.199-6.182-33.934-21.713-39.223-41.037-2.656.076-5.172-.77-7.648-2.439-3.914-2.641-6.344-6.773-6.492-11.057-.207-5.781 3.082-11.018 8.387-13.336.359-.156.738-.26 1.129-.307.766-.1 19.324-2.836 18.121-27.859-.102-2.146 1.508-3.99 3.652-4.176 2.078-.205 4.461 1.352 4.703 3.514.645 5.879 8.965 13.672 21.711 20.334 18.406 9.627 45.156 15.949 58.496 8.701 1.098-.604 2.414-.648 3.562-.129 5.609 2.543 8.871 8.375 8.117 14.51-.492 4.002-3.004 7.771-6.719 10.084-2.414 1.504-4.973 2.238-7.52 2.15-5.441 18.932-20.051 34.176-38.902 40.287l-1.777.574c-3.386 1.1-6.827 1.649-10.222 1.649zm-45.578-51.065c.691 0 1.383.18 1.996.533.992.572 1.691 1.541 1.922 2.664 3.738 18.23 17.047 33.096 34.738 38.791 4.645 1.494 9.719 1.428 14.68-.182l1.777-.574c17.379-5.635 30.598-20.244 34.492-38.127.246-1.121.961-2.084 1.961-2.643 1.008-.561 2.195-.662 3.281-.277 1.816.645 3.246.477 4.926-.572 1.684-1.049 2.805-2.645 3.008-4.27.254-2.064-.543-4.045-2.051-5.336-16.941 7.416-44.617.398-63.891-9.68-8.367-4.373-14.973-9.197-19.438-14.086-4.324 18.221-19.734 22.291-23.344 22.998-2.055 1.068-3.309 3.201-3.227 5.545.062 1.707 1.199 3.512 2.973 4.707 1.953 1.314 3.328 1.244 4.922.717.415-.139.845-.208 1.275-.208z"/><path d="m42 71.265c-7.719 0-14-6.281-14-14s6.281-14 14-14 14 6.281 14 14-6.281 14-14 14zm0-20c-3.309 0-6 2.691-6 6s2.691 6 6 6 6-2.691 6-6-2.691-6-6-6z"/><circle cx="258" cy="89.265" r="4.529"/><circle cx="42" cy="97.265" r="4.529"/><circle cx="74" cy="33.265" r="4.529"/><path d="m232.652 68.612c-1.023 0-2.047-.391-2.828-1.172-1.562-1.562-1.562-4.094 0-5.656l14.695-14.695c1.562-1.562 4.094-1.562 5.656 0s1.562 4.094 0 5.656l-14.695 14.696c-.781.781-1.804 1.171-2.828 1.171z"/><path d="m247.348 68.612c-1.023 0-2.047-.391-2.828-1.172l-14.695-14.695c-1.562-1.562-1.562-4.094 0-5.656s4.094-1.562 5.656 0l14.695 14.695c1.562 1.562 1.562 4.094 0 5.656-.781.782-1.805 1.172-2.828 1.172z"/><path d="m64.652 128.612c-1.023 0-2.047-.391-2.828-1.172-1.562-1.562-1.562-4.094 0-5.656l14.695-14.695c1.562-1.562 4.094-1.562 5.656 0s1.562 4.094 0 5.656l-14.695 14.696c-.781.781-1.804 1.171-2.828 1.171z"/><path d="m79.348 128.612c-1.023 0-2.047-.391-2.828-1.172l-14.695-14.695c-1.562-1.562-1.562-4.094 0-5.656s4.094-1.562 5.656 0l14.695 14.695c1.562 1.562 1.562 4.094 0 5.656-.781.782-1.805 1.172-2.828 1.172z"/><circle cx="178" cy="133.265" r="4"/><path d="m156 159.265c-2.914 0-5.73-1.061-7.922-2.984-1.66-1.457-1.824-3.984-.363-5.645 1.457-1.66 3.984-1.822 5.645-.367 1.59 1.398 4.188 1.246 5.609-.322 1.48-1.639 4.012-1.764 5.648-.283 1.637 1.482 1.766 4.012.281 5.65-2.269 2.511-5.515 3.951-8.898 3.951z"/><circle cx="138" cy="133.265" r="4"/></g><path d="m88 235.265v-15.957h-36v15.957h-1.95c-5.551 0-10.05 4.5-10.05 10.05v21.95h60v-21.95c0-5.551-4.5-10.05-10.05-10.05z" fill="#fff"/><path d="m100 271.265h-60c-2.211 0-4-1.791-4-4v-21.949c0-7.051 5.223-12.906 12-13.902v-12.105c0-2.209 1.789-4 4-4h36c2.211 0 4 1.791 4 4v12.105c6.777.996 12 6.852 12 13.902v21.949c0 2.209-1.789 4-4 4zm-56-8h52v-17.949c0-3.336-2.715-6.051-6.051-6.051h-1.949c-2.211 0-4-1.791-4-4v-11.957h-28v11.957c0 2.209-1.789 4-4 4h-1.949c-3.336 0-6.051 2.715-6.051 6.051z" fill="#4c241d"/><path d="m65.533 196.33s15.319-49.786-30.638-68.935c0 0-14.895 51.87 30.638 68.935z" fill="#fc8c29"/><path d="m65.531 200.329c-.477 0-.949-.084-1.402-.254-48.434-18.152-33.238-73.229-33.078-73.783.312-1.098 1.082-2.008 2.109-2.502s2.219-.531 3.273-.086c48.746 20.311 33.086 73.27 32.922 73.801-.324 1.055-1.07 1.928-2.059 2.414-.554.273-1.159.41-1.765.41zm-27.824-67.234c-2.203 11.959-4.867 43.756 25.043 57.734 2.277-11.445 5.188-42.357-25.043-57.734z" fill="#4c241d"/><path d="m71.414 222.36c-1.934 0-3.637-1.404-3.945-3.375-5.371-33.928-22.496-57.09-22.668-57.318-1.324-1.768-.965-4.273.801-5.6 1.758-1.322 4.266-.973 5.594.793.754 1 18.477 24.891 24.172 60.875.348 2.182-1.141 4.23-3.324 4.576-.212.034-.423.049-.63.049z" fill="#4c241d"/><path d="m72 239.265h-20c-2.211 0-4-1.791-4-4s1.789-4 4-4h20c2.211 0 4 1.791 4 4s-1.789 4-4 4z" fill="#4c241d"/><path d="m160 239.265h-.004c-1.363-.002-2.629-.695-3.363-1.842l-28.906-45.088c-1.191-1.859-.652-4.334 1.207-5.525 1.855-1.193 4.336-.652 5.527 1.209l25.551 39.85 24.793-38.449c1.195-1.857 3.668-2.395 5.531-1.193 1.855 1.197 2.391 3.672 1.195 5.529l-28.168 43.678c-.738 1.141-2.004 1.831-3.363 1.831z" fill="#4c241d"/><circle cx="160" cy="243.265" fill="#ffce56" r="9.006"/><path d="m160 256.271c-7.172 0-13.008-5.834-13.008-13.006s5.836-13.006 13.008-13.006 13.008 5.834 13.008 13.006-5.836 13.006-13.008 13.006zm0-18.012c-2.762 0-5.008 2.246-5.008 5.006s2.246 5.006 5.008 5.006 5.008-2.246 5.008-5.006-2.246-5.006-5.008-5.006z" fill="#4c241d"/></svg>